<svg width="371" height="578" viewBox="0 0 371 578" fill="none" xmlns="http://www.w3.org/2000/svg">
<path fill-rule="evenodd" clip-rule="evenodd" d="M-178.058 183.365L-64.6384 45.3109L108.23 0.381608L274.517 65.7383L370.707 216.417L360.058 394.863L246.638 532.917L73.7699 577.847L-92.5174 512.49L-188.707 361.811L-178.058 183.365ZM29.1019 50.9569L-41.298 46.7167L88.5278 12.9744L29.1019 50.9569ZM18.7438 57.5773L-59.8289 52.8448L-88.5721 126.169L18.7438 57.5773ZM-83.7464 131.667L24.06 62.7614L-5.03161 137.32L-83.7464 131.667ZM-94.4583 141.185L-142.953 264.895L-73.9929 221.216L-94.4583 141.185ZM-72.1092 228.583L-142.266 273.019L-78.518 325.657L-59.6509 277.302L-72.1092 228.583ZM-55.1459 265.756L-65.6912 224.518L-30.3113 202.109L-55.1459 265.756ZM-56.5794 289.313L-72.6504 330.501L-38.9262 358.348L-56.5794 289.313ZM-29.4727 366.154L-52.0744 277.768L-20.0067 195.582L53.8551 148.799L146.747 155.47L214.62 211.513L237.975 298.544L184.786 429.787L37.5899 421.528L-29.4727 366.154ZM-35.888 370.229L-75.4164 337.59L-105.045 413.525L-23.6487 418.092L-35.888 370.229ZM-16.0827 418.516L-26.4344 378.035L25.4113 420.845L-16.0827 418.516ZM-21.7697 425.44L-105.752 420.728L-0.908085 507.021L-21.7697 425.44ZM7.6379 511.278L-14.2037 425.864L34.822 428.615L144.949 519.548L7.6379 511.278ZM159.18 156.363L211.389 199.473L200.619 159.339L159.18 156.363ZM198.635 151.947L149.563 148.423L108.274 114.33L176.88 70.8765L198.635 151.947ZM208.246 159.887L220.999 207.408L261.393 240.761L291.739 165.883L208.246 159.887ZM288.879 158.428L206.263 152.495L184.886 72.8347L288.879 158.428ZM137.131 147.53L64.1354 142.287L101.851 118.399L137.131 147.53ZM51.9976 141.416L95.9845 113.555L32.4641 61.1055L2.51492 137.862L51.9976 141.416ZM-7.78326 144.372L-25.8751 190.739L-67.575 217.151L-87.6526 138.636L-7.78326 144.372ZM-0.236724 144.914L41.7173 147.927L-15.5704 184.212L-0.236724 144.914ZM192.411 430.215L241.082 310.121L274.546 434.823L192.411 430.215ZM245.582 299.016L280.118 427.708L328.294 304.81L328.017 305.146L264.39 252.609L245.582 299.016ZM224.23 219.448L242.476 287.439L258.547 247.784L224.23 219.448ZM41.1788 58.9285L169.981 66.6863L102.408 109.486L41.1788 58.9285ZM-145.564 279.669L-111.585 410.404L-81.284 332.745L-145.564 279.669ZM157.834 515.535L272.923 441.975L189.541 437.296L157.834 515.535ZM181.916 436.869L150.387 514.666L47.0007 429.299L181.916 436.869ZM267.236 245.586L326.518 294.536L295.603 175.59L267.236 245.586ZM-98.9301 132.789L-73.1767 67.0922L-158.356 170.772L-98.9301 132.789ZM-69.1767 513.896L55.7065 562.979L1.22313 518.136L-69.1767 513.896ZM-8.2734 510.32L-106.664 429.338L-86.8466 505.587L-8.2734 510.32ZM-116.161 421.522L-98.4047 489.839L-170.644 376.679L-116.161 421.522ZM-151.321 286.241L-180.064 359.565L-119.256 409.614L-151.321 286.241ZM-154.416 274.333L-180.169 340.03L-172.172 206.016L-154.416 274.333ZM-149.927 262.882L-169.744 186.633L-103.419 144.24L-149.927 262.882ZM13.4939 518.875L74.3023 568.924L140.627 526.532L13.4939 518.875ZM152.898 527.271L93.472 565.254L223.298 531.512L152.898 527.271ZM255.176 511.137L340.356 407.456L280.93 445.439L255.176 511.137ZM270.572 452.059L163.256 520.651L241.829 525.383L270.572 452.059ZM285.419 433.988L351.744 391.596L331.927 315.346L285.419 433.988ZM336.415 303.895L354.172 372.213L362.169 238.198L336.415 303.895ZM352.644 201.55L280.404 88.3885L298.16 156.707L352.644 201.55ZM333.321 291.987L362.064 218.664L301.255 168.614L333.321 291.987ZM288.664 148.89L268.846 72.641L190.273 67.9085L288.664 148.89ZM180.777 60.0923L251.177 64.3325L126.293 15.2487L180.777 60.0923ZM168.506 59.3532L41.3726 51.696L107.698 9.304L168.506 59.3532Z" fill="url(#paint0_radial_3708_2578)" fill-opacity="0.3"/>
<path fill-rule="evenodd" clip-rule="evenodd" d="M-178.058 183.365L-64.6384 45.3109L108.23 0.381608L274.517 65.7383L370.707 216.417L360.058 394.863L246.638 532.917L73.7699 577.847L-92.5174 512.49L-188.707 361.811L-178.058 183.365ZM29.1019 50.9569L-41.298 46.7167L88.5278 12.9744L29.1019 50.9569ZM18.7438 57.5773L-59.8289 52.8448L-88.5721 126.169L18.7438 57.5773ZM-83.7464 131.667L24.06 62.7614L-5.03161 137.32L-83.7464 131.667ZM-94.4583 141.185L-142.953 264.895L-73.9929 221.216L-94.4583 141.185ZM-72.1092 228.583L-142.266 273.019L-78.518 325.657L-59.6509 277.302L-72.1092 228.583ZM-55.1459 265.756L-65.6912 224.518L-30.3113 202.109L-55.1459 265.756ZM-56.5794 289.313L-72.6504 330.501L-38.9262 358.348L-56.5794 289.313ZM-29.4727 366.154L-52.0744 277.768L-20.0067 195.582L53.8551 148.799L146.747 155.47L214.62 211.513L237.975 298.544L184.786 429.787L37.5899 421.528L-29.4727 366.154ZM-35.888 370.229L-75.4164 337.59L-105.045 413.525L-23.6487 418.092L-35.888 370.229ZM-16.0827 418.516L-26.4344 378.035L25.4113 420.845L-16.0827 418.516ZM-21.7697 425.44L-105.752 420.728L-0.908085 507.021L-21.7697 425.44ZM7.6379 511.278L-14.2037 425.864L34.822 428.615L144.949 519.548L7.6379 511.278ZM159.18 156.363L211.389 199.473L200.619 159.339L159.18 156.363ZM198.635 151.947L149.563 148.423L108.274 114.33L176.88 70.8765L198.635 151.947ZM208.246 159.887L220.999 207.408L261.393 240.761L291.739 165.883L208.246 159.887ZM288.879 158.428L206.263 152.495L184.886 72.8347L288.879 158.428ZM137.131 147.53L64.1354 142.287L101.851 118.399L137.131 147.53ZM51.9976 141.416L95.9845 113.555L32.4641 61.1055L2.51492 137.862L51.9976 141.416ZM-7.78326 144.372L-25.8751 190.739L-67.575 217.151L-87.6526 138.636L-7.78326 144.372ZM-0.236724 144.914L41.7173 147.927L-15.5704 184.212L-0.236724 144.914ZM192.411 430.215L241.082 310.121L274.546 434.823L192.411 430.215ZM245.582 299.016L280.118 427.708L328.294 304.81L328.017 305.146L264.39 252.609L245.582 299.016ZM224.23 219.448L242.476 287.439L258.547 247.784L224.23 219.448ZM41.1788 58.9285L169.981 66.6863L102.408 109.486L41.1788 58.9285ZM-145.564 279.669L-111.585 410.404L-81.284 332.745L-145.564 279.669ZM157.834 515.535L272.923 441.975L189.541 437.296L157.834 515.535ZM181.916 436.869L150.387 514.666L47.0007 429.299L181.916 436.869ZM267.236 245.586L326.518 294.536L295.603 175.59L267.236 245.586ZM-98.9301 132.789L-73.1767 67.0922L-158.356 170.772L-98.9301 132.789ZM-69.1767 513.896L55.7065 562.979L1.22313 518.136L-69.1767 513.896ZM-8.2734 510.32L-106.664 429.338L-86.8466 505.587L-8.2734 510.32ZM-116.161 421.522L-98.4047 489.839L-170.644 376.679L-116.161 421.522ZM-151.321 286.241L-180.064 359.565L-119.256 409.614L-151.321 286.241ZM-154.416 274.333L-180.169 340.03L-172.172 206.016L-154.416 274.333ZM-149.927 262.882L-169.744 186.633L-103.419 144.24L-149.927 262.882ZM13.4939 518.875L74.3023 568.924L140.627 526.532L13.4939 518.875ZM152.898 527.271L93.472 565.254L223.298 531.512L152.898 527.271ZM255.176 511.137L340.356 407.456L280.93 445.439L255.176 511.137ZM270.572 452.059L163.256 520.651L241.829 525.383L270.572 452.059ZM285.419 433.988L351.744 391.596L331.927 315.346L285.419 433.988ZM336.415 303.895L354.172 372.213L362.169 238.198L336.415 303.895ZM352.644 201.55L280.404 88.3885L298.16 156.707L352.644 201.55ZM333.321 291.987L362.064 218.664L301.255 168.614L333.321 291.987ZM288.664 148.89L268.846 72.641L190.273 67.9085L288.664 148.89ZM180.777 60.0923L251.177 64.3325L126.293 15.2487L180.777 60.0923ZM168.506 59.3532L41.3726 51.696L107.698 9.304L168.506 59.3532Z" fill="url(#paint1_linear_3708_2578)"/>
<defs>
<radialGradient id="paint0_radial_3708_2578" cx="0" cy="0" r="1" gradientUnits="userSpaceOnUse" gradientTransform="translate(97.9376 284.297) rotate(42.6441) scale(326.884 343.573)">
<stop stop-color="white" stop-opacity="0.8"/>
<stop offset="1" stop-color="white" stop-opacity="0"/>
</radialGradient>
<linearGradient id="paint1_linear_3708_2578" x1="317.447" y1="230.142" x2="-57" y2="448" gradientUnits="userSpaceOnUse">
<stop stop-opacity="0"/>
<stop offset="1"/>
</linearGradient>
</defs>
</svg>
